# 3ds Max Wavefront OBJ Exporter v0.97b - (c)2007 guruware
# File Created: 22.09.2018 19:55:23

mtllib Scissor.mtl

#
# object ScissorLeft
#

v  -0.0008 0.0019 0.0350
v  -0.0008 -0.0020 0.0350
v  -0.0004 -0.0020 0.0085
v  -0.0004 0.0019 0.0085
v  -0.0020 0.0019 0.0533
v  -0.0020 -0.0020 0.0533
v  -0.0032 0.0019 0.0597
v  -0.0032 -0.0020 0.0597
v  -0.0050 0.0019 0.0620
v  -0.0050 -0.0020 0.0620
v  -0.0082 0.0019 0.0644
v  -0.0082 -0.0020 0.0644
v  -0.0116 0.0019 0.0654
v  -0.0116 -0.0020 0.0654
v  -0.0156 0.0019 0.0657
v  -0.0156 -0.0020 0.0657
v  -0.0195 0.0019 0.0649
v  -0.0195 -0.0020 0.0649
v  -0.0230 0.0019 0.0629
v  -0.0230 -0.0020 0.0629
v  -0.0252 0.0019 0.0604
v  -0.0252 -0.0020 0.0604
v  -0.0269 0.0019 0.0576
v  -0.0269 -0.0020 0.0576
v  -0.0280 0.0019 0.0539
v  -0.0280 -0.0020 0.0539
v  -0.0276 0.0019 0.0498
v  -0.0276 -0.0020 0.0498
v  -0.0261 0.0019 0.0459
v  -0.0261 -0.0020 0.0459
v  -0.0227 0.0019 0.0415
v  -0.0227 -0.0020 0.0415
v  -0.0195 0.0019 0.0378
v  -0.0195 -0.0020 0.0378
v  -0.0172 0.0019 0.0348
v  -0.0172 -0.0020 0.0348
v  -0.0156 0.0019 0.0320
v  -0.0156 -0.0020 0.0320
v  -0.0139 0.0019 0.0288
v  -0.0139 -0.0020 0.0288
v  -0.0121 0.0019 0.0242
v  -0.0121 -0.0020 0.0242
v  -0.0097 0.0019 0.0141
v  -0.0097 -0.0020 0.0141
v  -0.0090 0.0019 0.0087
v  -0.0090 -0.0020 0.0087
v  -0.0046 0.0019 0.0082
v  -0.0046 -0.0020 0.0082
v  -0.0010 -0.0023 0.0093
v  -0.0015 -0.0023 0.0349
v  -0.0025 -0.0023 0.0531
v  -0.0037 -0.0023 0.0592
v  -0.0053 -0.0023 0.0614
v  -0.0085 -0.0023 0.0638
v  -0.0118 -0.0023 0.0648
v  -0.0155 -0.0023 0.0650
v  -0.0194 -0.0023 0.0643
v  -0.0226 -0.0023 0.0625
v  -0.0248 -0.0023 0.0600
v  -0.0264 -0.0023 0.0571
v  -0.0275 -0.0023 0.0537
v  -0.0270 -0.0023 0.0497
v  -0.0255 -0.0023 0.0461
v  -0.0222 -0.0023 0.0418
v  -0.0189 -0.0023 0.0380
v  -0.0166 -0.0023 0.0350
v  -0.0149 -0.0023 0.0325
v  -0.0133 -0.0023 0.0293
v  -0.0115 -0.0023 0.0246
v  -0.0090 -0.0023 0.0142
v  -0.0083 -0.0023 0.0094
v  -0.0053 0.0023 0.0614
v  -0.0037 0.0023 0.0592
v  -0.0025 0.0023 0.0531
v  -0.0085 0.0023 0.0638
v  -0.0118 0.0023 0.0648
v  -0.0155 0.0023 0.0650
v  -0.0194 0.0023 0.0643
v  -0.0226 0.0023 0.0625
v  -0.0248 0.0023 0.0600
v  -0.0264 0.0023 0.0571
v  -0.0275 0.0023 0.0537
v  -0.0270 0.0023 0.0497
v  -0.0255 0.0023 0.0461
v  -0.0222 0.0023 0.0418
v  -0.0189 0.0023 0.0380
v  -0.0166 0.0023 0.0350
v  -0.0149 0.0023 0.0325
v  -0.0015 0.0023 0.0349
v  -0.0133 0.0023 0.0293
v  -0.0115 0.0023 0.0246
v  -0.0090 0.0023 0.0142
v  -0.0083 0.0023 0.0094
v  -0.0010 0.0023 0.0093
v  0.0016 -0.0000 -0.0637
v  0.0036 -0.0000 -0.0445
v  0.0051 -0.0000 -0.0248
v  0.0061 -0.0000 -0.0062
v  0.0057 -0.0000 0.0016
v  0.0050 -0.0000 0.0029
v  0.0037 -0.0000 0.0038
v  0.0008 -0.0000 0.0047
v  -0.0008 -0.0000 0.0049
v  -0.0016 -0.0000 0.0061
v  -0.0020 -0.0000 0.0086
v  -0.0063 -0.0000 0.0089
v  -0.0059 -0.0000 -0.0046
v  -0.0044 -0.0000 -0.0220
v  -0.0027 -0.0000 -0.0439
v  -0.0010 -0.0000 -0.0640
v  -0.0000 -0.0000 -0.0653
v  0.0007 -0.0000 -0.0657
v  0.0016 -0.0014 -0.0637
v  0.0036 -0.0014 -0.0445
v  0.0051 -0.0014 -0.0248
v  0.0061 -0.0014 -0.0062
v  0.0057 -0.0014 0.0016
v  0.0050 -0.0014 0.0029
v  0.0037 -0.0014 0.0038
v  0.0008 -0.0014 0.0047
v  -0.0008 -0.0014 0.0049
v  -0.0016 -0.0014 0.0061
v  -0.0020 -0.0014 0.0086
v  -0.0063 -0.0014 0.0089
v  -0.0031 -0.0014 -0.0046
v  -0.0022 -0.0014 -0.0219
v  -0.0011 -0.0014 -0.0439
v  -0.0001 -0.0014 -0.0641
v  0.0002 -0.0014 -0.0653
v  0.0007 -0.0014 -0.0657
v  -0.0059 -0.0002 -0.0046
v  -0.0044 -0.0002 -0.0220
v  -0.0027 -0.0002 -0.0439
v  -0.0010 -0.0002 -0.0640
v  -0.0060 -0.0000 -0.0033
v  -0.0060 -0.0014 -0.0033
v  -0.0092 -0.0023 0.0621
v  -0.0121 -0.0023 0.0631
v  -0.0155 -0.0023 0.0634
v  -0.0188 -0.0023 0.0626
v  -0.0217 -0.0023 0.0608
v  -0.0234 -0.0023 0.0589
v  -0.0250 -0.0023 0.0564
v  -0.0258 -0.0023 0.0534
v  -0.0253 -0.0023 0.0496
v  -0.0237 -0.0023 0.0465
v  -0.0203 -0.0023 0.0423
v  -0.0169 -0.0023 0.0390
v  -0.0124 -0.0023 0.0355
v  -0.0092 0.0023 0.0621
v  -0.0121 0.0023 0.0631
v  -0.0155 0.0023 0.0634
v  -0.0188 0.0023 0.0626
v  -0.0217 0.0023 0.0608
v  -0.0235 0.0023 0.0589
v  -0.0250 0.0023 0.0564
v  -0.0258 0.0023 0.0534
v  -0.0254 0.0023 0.0496
v  -0.0237 0.0023 0.0465
v  -0.0203 0.0023 0.0423
v  -0.0012 0.0019 0.0409
v  -0.0018 -0.0023 0.0409
v  -0.0012 -0.0020 0.0409
v  -0.0018 0.0023 0.0409
v  -0.0021 -0.0023 0.0461
v  -0.0015 -0.0020 0.0462
v  -0.0015 0.0019 0.0462
v  -0.0021 0.0023 0.0461
v  -0.0009 0.0019 0.0373
v  -0.0016 0.0023 0.0373
v  -0.0016 -0.0023 0.0373
v  -0.0009 -0.0020 0.0373
v  -0.0071 -0.0023 0.0368
v  -0.0007 0.0019 0.0328
v  -0.0007 -0.0020 0.0328
v  -0.0014 0.0023 0.0328
v  -0.0014 -0.0023 0.0328
v  -0.0084 -0.0023 0.0324
v  -0.0005 0.0019 0.0148
v  -0.0007 0.0019 0.0266
v  -0.0005 -0.0020 0.0148
v  -0.0007 -0.0020 0.0266
v  -0.0012 0.0023 0.0149
v  -0.0013 0.0023 0.0266
v  -0.0013 -0.0023 0.0266
v  -0.0012 -0.0023 0.0149
v  -0.0097 -0.0023 0.0354
v  -0.0097 0.0023 0.0354
v  -0.0064 0.0023 0.0259
v  -0.0084 0.0023 0.0324
v  -0.0064 -0.0023 0.0259
v  -0.0051 0.0023 0.0145
v  -0.0051 -0.0023 0.0145
v  -0.0047 0.0023 0.0090
v  -0.0047 -0.0023 0.0090
v  -0.0071 0.0023 0.0367
v  -0.0049 0.0023 0.0409
v  -0.0049 -0.0023 0.0409
v  -0.0040 0.0023 0.0460
v  -0.0040 -0.0023 0.0460
v  -0.0039 0.0023 0.0524
v  -0.0039 -0.0023 0.0524
v  -0.0052 0.0023 0.0578
v  -0.0052 -0.0023 0.0578
v  -0.0067 -0.0023 0.0600
v  -0.0067 0.0023 0.0600
v  -0.0169 0.0023 0.0390
v  -0.0124 0.0023 0.0354
v  -0.0122 -0.0019 0.0624
v  -0.0186 -0.0019 0.0620
v  -0.0214 -0.0019 0.0602
v  -0.0244 -0.0019 0.0560
v  -0.0252 -0.0019 0.0533
v  -0.0247 -0.0019 0.0496
v  -0.0200 -0.0019 0.0428
v  -0.0124 -0.0019 0.0362
v  -0.0099 -0.0019 0.0362
v  -0.0075 -0.0019 0.0375
v  -0.0054 -0.0019 0.0413
v  -0.0046 -0.0019 0.0461
v  -0.0044 -0.0019 0.0522
v  -0.0057 -0.0019 0.0575
v  -0.0094 -0.0019 0.0614
v  -0.0155 -0.0019 0.0627
v  -0.0230 -0.0019 0.0584
v  -0.0232 -0.0019 0.0467
v  -0.0168 -0.0019 0.0396
v  -0.0071 -0.0019 0.0595
v  -0.0122 0.0018 0.0624
v  -0.0214 0.0018 0.0602
v  -0.0247 0.0018 0.0496
v  -0.0099 0.0018 0.0362
v  -0.0057 0.0018 0.0575
v  -0.0186 0.0018 0.0620
v  -0.0244 0.0018 0.0560
v  -0.0252 0.0018 0.0533
v  -0.0200 0.0018 0.0428
v  -0.0124 0.0018 0.0362
v  -0.0075 0.0018 0.0375
v  -0.0054 0.0018 0.0413
v  -0.0046 0.0018 0.0461
v  -0.0044 0.0018 0.0522
v  -0.0094 0.0018 0.0614
v  -0.0155 0.0018 0.0627
v  -0.0230 0.0018 0.0584
v  -0.0232 0.0018 0.0467
v  -0.0168 0.0018 0.0396
v  -0.0071 0.0018 0.0595
v  -0.0062 -0.0000 0.0061
v  -0.0062 -0.0000 0.0049
v  -0.0062 -0.0000 0.0047
v  -0.0062 -0.0000 0.0038
v  -0.0061 -0.0000 0.0029
v  -0.0061 -0.0000 0.0016
v  -0.0061 -0.0014 0.0016
v  -0.0061 -0.0014 0.0029
v  -0.0062 -0.0014 0.0038
v  -0.0062 -0.0014 0.0047
v  -0.0062 -0.0014 0.0049
v  -0.0062 -0.0014 0.0061
v  0.0060 -0.0000 -0.0032
v  0.0060 -0.0014 -0.0032
v  -0.0063 -0.0002 0.0089
v  -0.0060 -0.0002 -0.0033
v  -0.0061 -0.0002 0.0016
v  -0.0061 -0.0002 0.0029
v  -0.0062 -0.0002 0.0038
v  -0.0062 -0.0002 0.0061
v  -0.0062 -0.0002 0.0049
v  -0.0062 -0.0002 0.0047
v  0.0016 -0.0002 -0.0637
v  0.0036 -0.0002 -0.0445
v  0.0051 -0.0002 -0.0248
v  0.0061 -0.0002 -0.0062
v  0.0057 -0.0002 0.0016
v  0.0050 -0.0002 0.0029
v  0.0037 -0.0002 0.0038
v  0.0008 -0.0002 0.0047
v  -0.0008 -0.0002 0.0049
v  -0.0016 -0.0002 0.0061
v  -0.0020 -0.0002 0.0086
v  -0.0000 -0.0002 -0.0653
v  0.0007 -0.0002 -0.0657
v  0.0060 -0.0002 -0.0032
# 284 vertices

vt 0.3590 0.5687 0.0000
vt 0.3415 0.5778 0.0000
vt 0.3330 0.5776 0.0000
vt 0.3611 0.5404 0.0000
vt 0.3702 0.5416 0.0000
vt 0.3314 0.5504 0.0000
vt 0.3675 0.5688 0.0000
vt 0.3405 0.5495 0.0000
vt 0.4499 0.2219 0.0000
vt 0.3427 0.6087 0.0000
vt 0.4503 0.2330 0.0000
vt 0.3340 0.6089 0.0000
vt 0.4011 0.2319 0.0000
vt 0.3443 0.8219 0.0000
vt 0.3940 0.2203 0.0000
vt 0.3356 0.9066 0.0000
vt 0.5072 0.2362 0.0000
vt 0.3286 0.9014 0.0000
vt 0.6033 0.2055 0.0000
vt 0.6033 0.1364 0.0000
vt 0.6282 0.1364 0.0000
vt 0.6282 0.2055 0.0000
vt 0.5746 0.1364 0.0000
vt 0.5746 0.2055 0.0000
vt 0.5377 0.2055 0.0000
vt 0.5377 0.1364 0.0000
vt 0.4972 0.2055 0.0000
vt 0.4972 0.1364 0.0000
vt 0.4579 0.2055 0.0000
vt 0.4579 0.1364 0.0000
vt 0.4141 0.2055 0.0000
vt 0.4141 0.1364 0.0000
vt 0.3776 0.2055 0.0000
vt 0.3776 0.1364 0.0000
vt 0.3469 0.2055 0.0000
vt 0.3469 0.1364 0.0000
vt 0.3194 0.1364 0.0000
vt 0.3194 0.2055 0.0000
vt 0.2877 0.1364 0.0000
vt 0.2877 0.2055 0.0000
vt 0.2416 0.2055 0.0000
vt 0.2416 0.1364 0.0000
vt 0.1401 0.2055 0.0000
vt 0.1401 0.1364 0.0000
vt 0.0868 0.2055 0.0000
vt 0.0868 0.1364 0.0000
vt 0.4970 0.2443 0.0000
vt 0.3371 0.8195 0.0000
vt 0.3140 0.9391 0.0000
vt 0.3089 0.9319 0.0000
vt 0.2744 0.9749 0.0000
vt 0.2698 0.9672 0.0000
vt 0.2293 0.9909 0.0000
vt 0.2272 0.9831 0.0000
vt 0.1775 0.9986 0.0000
vt 0.1774 0.9892 0.0000
vt 0.1251 0.9925 0.0000
vt 0.1265 0.9846 0.0000
vt 0.0774 0.9698 0.0000
vt 0.0819 0.9632 0.0000
vt 0.0447 0.9392 0.0000
vt 0.0500 0.9331 0.0000
vt 0.0201 0.9029 0.0000
vt 0.0256 0.8961 0.0000
vt 0.0015 0.8553 0.0000
vt 0.0086 0.8521 0.0000
vt 0.0032 0.8012 0.0000
vt 0.0108 0.7993 0.0000
vt 0.0186 0.7478 0.0000
vt 0.0263 0.7498 0.0000
vt 0.0589 0.6864 0.0000
vt 0.5072 0.3074 0.0000
vt 0.4980 0.3078 0.0000
vt 0.5240 0.4448 0.0000
vt 0.5149 0.4488 0.0000
vt 0.5399 0.5082 0.0000
vt 0.5321 0.5133 0.0000
vt 0.5575 0.5526 0.0000
vt 0.5479 0.5583 0.0000
vt 0.5753 0.5914 0.0000
vt 0.5662 0.5929 0.0000
vt 0.5998 0.6352 0.0000
vt 0.5918 0.6368 0.0000
vt 0.6371 0.6883 0.0000
vt 0.6300 0.6908 0.0000
vt 0.6749 0.7512 0.0000
vt 0.6671 0.7529 0.0000
vt 0.6883 0.8052 0.0000
vt 0.6807 0.8030 0.0000
vt 0.6879 0.8592 0.0000
vt 0.6809 0.8558 0.0000
vt 0.6674 0.9061 0.0000
vt 0.6621 0.8991 0.0000
vt 0.6414 0.9414 0.0000
vt 0.8625 0.9841 0.0000
vt 0.8512 0.9676 0.0000
vt 0.8470 0.7087 0.0000
vt 0.9259 0.7221 0.0000
vt 0.8846 0.9661 0.0000
vt 0.9835 0.1178 0.0000
vt 0.9691 0.1060 0.0000
vt 0.9710 0.1038 0.0000
vt 0.9127 0.0870 0.0000
vt 0.9033 0.0708 0.0000
vt 0.9061 0.0698 0.0000
vt 0.8718 0.9895 0.0000
vt 0.8416 0.1249 0.0000
vt 0.8423 0.1082 0.0000
vt 0.9927 0.1345 0.0000
vt 0.7888 0.9843 0.0000
vt 0.7830 0.9942 0.0000
vt 0.7695 0.9794 0.0000
vt 0.7652 0.9863 0.0000
vt 0.7531 0.9639 0.0000
vt 0.7738 0.9668 0.0000
vt 0.8101 0.4269 0.0000
vt 0.9860 0.1162 0.0000
vt 0.9332 0.0914 0.0000
vt 0.9344 0.0886 0.0000
vt 0.9144 0.0848 0.0000
vt 0.9000 0.0395 0.0000
vt 0.9031 0.0399 0.0000
vt 0.7814 0.4276 0.0000
vt 0.7854 0.2050 0.0000
vt 0.8255 0.3028 0.0000
vt 0.8213 0.2047 0.0000
vt 0.7864 0.9834 0.0000
vt 0.8133 0.4272 0.0000
vt 0.7803 0.9928 0.0000
vt 0.7973 0.7080 0.0000
vt 0.7786 0.7088 0.0000
vt 0.6690 0.1302 0.0000
vt 0.8255 0.3150 0.0000
vt 0.8427 0.0971 0.0000
vt 0.8102 0.1812 0.0000
vt 0.0659 0.6893 0.0000
vt 0.0983 0.6349 0.0000
vt 0.1062 0.6367 0.0000
vt 0.1244 0.5921 0.0000
vt 0.1335 0.5939 0.0000
vt 0.1438 0.5539 0.0000
vt 0.1531 0.5600 0.0000
vt 0.1631 0.5103 0.0000
vt 0.1707 0.5157 0.0000
vt 0.0917 0.6952 0.0000
vt 0.1329 0.6477 0.0000
vt 0.1358 0.6569 0.0000
vt 0.1814 0.4475 0.0000
vt 0.4282 0.9386 0.0000
vt 0.3977 0.9073 0.0000
vt 0.6202 0.9185 0.0000
vt 0.6115 0.9086 0.0000
vt 0.6337 0.8797 0.0000
vt 0.6445 0.8871 0.0000
vt 0.6491 0.8460 0.0000
vt 0.6596 0.8498 0.0000
vt 0.5054 0.9535 0.0000
vt 0.6447 0.7568 0.0000
vt 0.6342 0.7592 0.0000
vt 0.6363 0.9351 0.0000
vt 0.1904 0.4519 0.0000
vt 0.2037 0.3109 0.0000
vt 0.6075 0.9707 0.0000
vt 0.2128 0.3117 0.0000
vt 0.2064 0.2398 0.0000
vt 0.6032 0.9639 0.0000
vt 0.5590 0.9915 0.0000
vt 0.5579 0.9836 0.0000
vt 0.5063 0.9956 0.0000
vt 0.2163 0.2483 0.0000
vt 0.2643 0.2278 0.0000
vt 0.2634 0.2388 0.0000
vt 0.5068 0.9862 0.0000
vt 0.3202 0.2283 0.0000
vt 0.4549 0.9858 0.0000
vt 0.3126 0.2397 0.0000
vt 0.2598 0.6085 0.0000
vt 0.4573 0.9781 0.0000
vt 0.4105 0.9681 0.0000
vt 0.2242 0.5932 0.0000
vt 0.3068 0.8845 0.0000
vt 0.4153 0.9606 0.0000
vt 0.3723 0.9307 0.0000
vt 0.3192 0.8112 0.0000
vt 0.2895 0.9148 0.0000
vt 0.2583 0.9446 0.0000
vt 0.3777 0.9238 0.0000
vt 0.3520 0.8974 0.0000
vt 0.3591 0.8925 0.0000
vt 0.2208 0.9617 0.0000
vt 0.3466 0.8125 0.0000
vt 0.1897 0.5962 0.0000
vt 0.3539 0.8103 0.0000
vt 0.1759 0.9680 0.0000
vt 0.4390 0.6015 0.0000
vt 0.4443 0.6129 0.0000
vt 0.1318 0.9618 0.0000
vt 0.3653 0.6000 0.0000
vt 0.0914 0.9403 0.0000
vt 0.3566 0.5995 0.0000
vt 0.0669 0.9169 0.0000
vt 0.4075 0.8989 0.0000
vt 0.0442 0.8850 0.0000
vt 0.0302 0.8472 0.0000
vt 0.4351 0.9276 0.0000
vt 0.5957 0.7038 0.0000
vt 0.6043 0.6955 0.0000
vt 0.0325 0.7960 0.0000
vt 0.0510 0.7532 0.0000
vt 0.5062 0.0712 0.0000
vt 0.5062 0.1353 0.0000
vt 0.4885 0.1353 0.0000
vt 0.4885 0.0712 0.0000
vt 0.0984 0.7025 0.0000
vt 0.8255 0.7848 0.0000
vt 0.7931 0.9675 0.0000
vt 0.3430 0.6567 0.0000
vt 0.3435 0.7274 0.0000
vt 0.3355 0.7268 0.0000
vt 0.3350 0.6573 0.0000
vt 0.3106 0.7270 0.0000
vt 0.2938 0.6609 0.0000
vt 0.3266 0.4682 0.0000
vt 0.5941 0.0712 0.0000
vt 0.0589 0.7563 0.0000
vt 0.8255 0.9759 0.0000
vt 0.3166 0.3132 0.0000
vt 0.3825 0.8762 0.0000
vt 0.5058 0.9646 0.0000
vt 0.4656 0.9572 0.0000
vt 0.5649 0.6465 0.0000
vt 0.3919 0.8703 0.0000
vt 0.4687 0.9447 0.0000
vt 0.5882 0.9292 0.0000
vt 0.5941 0.9409 0.0000
vt 0.4119 0.6613 0.0000
vt 0.5590 0.6578 0.0000
vt 0.8255 0.5901 0.0000
vt 0.4033 0.6538 0.0000
vt 0.8255 0.4049 0.0000
vt 0.1640 0.1353 0.0000
vt 0.8255 0.3760 0.0000
vt 0.5541 0.9603 0.0000
vt 0.5513 0.9494 0.0000
vt 0.5093 0.6035 0.0000
vt 0.5117 0.5919 0.0000
vt 0.8432 0.0853 0.0000
vt 0.8434 0.0825 0.0000
vt 0.8440 0.0678 0.0000
vt 0.6785 0.1131 0.0000
vt 0.8145 0.1076 0.0000
vt 0.8142 0.1243 0.0000
vt 0.6939 0.1014 0.0000
vt 0.8147 0.0965 0.0000
vt 0.7305 0.0880 0.0000
vt 0.8149 0.0847 0.0000
vt 0.8305 0.0857 0.0000
vt 0.8220 0.1870 0.0000
vt 0.8299 0.0976 0.0000
vt 0.8269 0.0974 0.0000
vt 0.8275 0.0855 0.0000
vt 0.8245 0.2052 0.0000
vt 0.9289 0.7223 0.0000
vt 0.8872 0.9674 0.0000
vt 0.8255 0.2741 0.0000
vt 0.9623 0.4721 0.0000
vt 0.8255 0.2578 0.0000
vt 0.8255 0.2438 0.0000
vt 0.8365 0.3028 0.0000
vt 0.8365 0.2438 0.0000
vt 0.8365 0.2578 0.0000
vt 0.8365 0.2206 0.0000
vt 0.8255 0.3280 0.0000
vt 0.8255 0.9951 0.0000
vt 0.9653 0.4727 0.0000
vt 0.4293 0.0712 0.0000
vt 0.4293 0.1353 0.0000
vt 0.3967 0.1353 0.0000
vt 0.3967 0.0712 0.0000
vt 0.4608 0.1353 0.0000
vt 0.4608 0.0712 0.0000
vt 0.3692 0.1353 0.0000
vt 0.3692 0.0712 0.0000
vt 0.3459 0.1353 0.0000
vt 0.3459 0.0712 0.0000
vt 0.0321 0.0712 0.0000
vt 0.0321 0.1353 0.0000
vt 0.0006 0.1353 0.0000
vt 0.0006 0.0712 0.0000
vt 0.1015 0.0712 0.0000
vt 0.1015 0.1353 0.0000
vt 0.0764 0.1353 0.0000
vt 0.0764 0.0712 0.0000
vt 0.1257 0.0712 0.0000
vt 0.1257 0.1353 0.0000
vt 0.9904 0.2346 0.0000
vt 0.9934 0.2349 0.0000
vt 0.9924 0.1972 0.0000
vt 0.9954 0.1973 0.0000
vt 0.8255 0.2206 0.0000
vt 0.9956 0.1339 0.0000
vt 0.8748 0.9904 0.0000
vt 0.8365 0.7848 0.0000
vt 0.8365 0.9759 0.0000
vt 0.8365 0.5901 0.0000
vt 0.8365 0.4049 0.0000
vt 0.8365 0.3760 0.0000
vt 0.8365 0.3150 0.0000
vt 0.8365 0.3280 0.0000
vt 0.8365 0.9951 0.0000
vt 0.8005 0.7082 0.0000
vt 0.7962 0.9680 0.0000
vt 0.8254 0.1875 0.0000
vt 0.8285 0.1253 0.0000
vt 0.8255 0.1251 0.0000
vt 0.8293 0.1086 0.0000
vt 0.8263 0.1084 0.0000
vt 0.8152 0.0672 0.0000
vt 0.8159 0.0317 0.0000
vt 0.8301 0.0326 0.0000
vt 0.8284 0.0681 0.0000
vt 0.8150 0.0819 0.0000
vt 0.8276 0.0828 0.0000
vt 0.8332 0.0328 0.0000
vt 0.8314 0.0682 0.0000
vt 0.8306 0.0829 0.0000
vt 0.7509 0.0844 0.0000
vt 0.7605 0.0692 0.0000
vt 0.7649 0.0365 0.0000
vt 0.6678 0.1923 0.0000
vt 0.6687 0.2295 0.0000
vt 0.6899 0.4679 0.0000
vt 0.7190 0.7185 0.0000
vt 0.8455 0.0323 0.0000
vt 0.8390 0.1872 0.0000
vt 0.8386 0.2049 0.0000
vt 0.8434 0.4275 0.0000
vt 0.0426 0.1364 0.0000
vt 0.0426 0.2055 0.0000
vt 0.0006 0.2055 0.0000
vt 0.0006 0.1364 0.0000
vt 0.1487 0.0701 0.0000
vt 0.1487 0.0009 0.0000
vt 0.1806 0.0009 0.0000
vt 0.1806 0.0701 0.0000
vt 0.1139 0.0009 0.0000
vt 0.1139 0.0701 0.0000
vt 0.0745 0.0701 0.0000
vt 0.0745 0.0009 0.0000
vt 0.0354 0.0701 0.0000
vt 0.0354 0.0009 0.0000
vt 0.0008 0.0009 0.0000
vt 0.0008 0.0701 0.0000
vt 0.4506 0.0701 0.0000
vt 0.4506 0.0009 0.0000
vt 0.4720 0.0009 0.0000
vt 0.4720 0.0701 0.0000
vt 0.2669 0.0701 0.0000
vt 0.2669 0.0009 0.0000
vt 0.3380 0.0009 0.0000
vt 0.3380 0.0701 0.0000
vt 0.2037 0.0701 0.0000
vt 0.2037 0.0009 0.0000
vt 0.3912 0.0009 0.0000
vt 0.4273 0.0009 0.0000
vt 0.4273 0.0701 0.0000
vt 0.3912 0.0701 0.0000
vt 0.5343 0.0009 0.0000
vt 0.6523 0.0009 0.0000
vt 0.6523 0.0701 0.0000
vt 0.5343 0.0701 0.0000
vt 0.7146 0.0009 0.0000
vt 0.7146 0.0701 0.0000
vt 0.2118 0.1353 0.0000
vt 0.3841 0.7188 0.0000
vt 0.2732 0.1353 0.0000
vt 0.3722 0.8032 0.0000
vt 0.3259 0.0712 0.0000
vt 0.3259 0.1353 0.0000
vt 0.2732 0.0712 0.0000
vt 0.1640 0.0712 0.0000
vt 0.2118 0.0712 0.0000
vt 0.3254 0.3108 0.0000
vt 0.3353 0.4670 0.0000
vt 0.2388 0.5520 0.0000
vt 0.2583 0.4636 0.0000
vt 0.2647 0.3124 0.0000
vt 0.1762 0.9587 0.0000
vt 0.2190 0.9525 0.0000
vt 0.0954 0.9320 0.0000
vt 0.1338 0.9526 0.0000
vt 0.0729 0.9101 0.0000
vt 0.0404 0.7958 0.0000
vt 0.0380 0.8444 0.0000
vt 0.2229 0.6031 0.0000
vt 0.1897 0.6059 0.0000
vt 0.2562 0.6176 0.0000
vt 0.2996 0.8805 0.0000
vt 0.3115 0.8095 0.0000
vt 0.2832 0.9085 0.0000
vt 0.2544 0.9364 0.0000
vt 0.0514 0.8800 0.0000
vt 0.2874 0.6662 0.0000
vt 0.3032 0.7285 0.0000
vt 0.3930 0.7215 0.0000
vt 0.3812 0.8004 0.0000
vt 0.6586 0.7971 0.0000
vt 0.4755 0.5886 0.0000
vt 0.3591 0.7178 0.0000
vt 0.3624 0.6484 0.0000
vt 0.3511 0.7180 0.0000
vt 0.3544 0.6475 0.0000
vt 0.6475 0.7954 0.0000
vt 0.3695 0.4582 0.0000
vt 0.3855 0.3025 0.0000
vt 0.3942 0.3052 0.0000
vt 0.3781 0.4598 0.0000
vt 0.4626 0.5469 0.0000
vt 0.4466 0.4578 0.0000
vt 0.4461 0.3065 0.0000
vt 0.4764 0.5986 0.0000
vt 0.8365 0.2741 0.0000
vt 0.5941 0.1353 0.0000
vt 0.5576 0.1353 0.0000
vt 0.5576 0.0712 0.0000
vt 0.6233 0.0712 0.0000
vt 0.6233 0.1353 0.0000
vt 0.5301 0.0712 0.0000
vt 0.5301 0.1353 0.0000
vt 0.6623 0.0712 0.0000
vt 0.6623 0.1353 0.0000
# 431 texture coords

g ScissorLeft
usemtl Material__4
f 2/355 175/356 174/357 1/354 
f 6/359 166/360 167/361 5/358 
f 7/362 8/363 6/359 5/358 
f 10/344 8/363 7/362 9/345 
f 11/342 12/343 10/344 9/345 
f 14/346 12/343 11/342 13/347 
f 15/348 16/349 14/346 13/347 
f 17/350 18/351 16/349 15/348 
f 20/352 18/351 17/350 19/353 
f 21/19 22/20 20/21 19/22 
f 24/23 22/20 21/19 23/24 
f 25/25 26/26 24/23 23/24 
f 27/27 28/28 26/26 25/25 
f 29/29 30/30 28/28 27/27 
f 31/31 32/32 30/30 29/29 
f 33/33 34/34 32/32 31/31 
f 35/35 36/36 34/34 33/33 
f 38/37 36/36 35/35 37/38 
f 40/39 38/37 37/38 39/40 
f 41/41 42/42 40/39 39/40 
f 41/41 43/43 44/44 42/42 
f 45/45 46/46 44/44 43/43 
f 48/338 46/46 45/45 47/339 
f 4/340 3/341 48/338 47/339 
f 50/3 177/6 175/8 2/2 
f 172/10 171/12 50/3 2/2 
f 6/14 8/16 52/18 51/48 
f 8/16 10/49 53/50 52/18 
f 10/49 12/51 54/52 53/50 
f 12/51 14/53 55/54 54/52 
f 16/55 56/56 55/54 14/53 
f 18/57 57/58 56/56 16/55 
f 20/59 58/60 57/58 18/57 
f 22/61 59/62 58/60 20/59 
f 24/63 60/64 59/62 22/61 
f 26/65 61/66 60/64 24/63 
f 28/67 62/68 61/66 26/65 
f 30/69 63/70 62/68 28/67 
f 32/71 64/136 63/70 30/69 
f 34/137 65/138 64/136 32/71 
f 36/139 66/140 65/138 34/137 
f 36/139 38/141 67/142 66/140 
f 38/141 40/143 68/144 67/142 
f 40/143 42/148 69/161 68/144 
f 44/162 70/164 69/161 42/148 
f 44/162 46/165 71/170 70/164 
f 46/165 48/171 195/172 71/170 
f 48/171 3/174 49/176 195/172 
f 174/4 176/5 89/7 1/1 
f 47/9 194/11 94/13 4/15 
f 45/17 93/47 194/11 47/9 
f 43/72 92/73 93/47 45/17 
f 41/74 91/75 92/73 43/72 
f 39/76 90/77 91/75 41/74 
f 37/78 88/79 90/77 39/76 
f 35/80 87/81 88/79 37/78 
f 35/80 33/82 86/83 87/81 
f 33/82 31/84 85/85 86/83 
f 31/84 29/86 84/87 85/85 
f 29/86 27/88 83/89 84/87 
f 27/88 25/90 82/91 83/89 
f 25/90 23/92 81/93 82/91 
f 23/92 21/94 80/160 81/93 
f 21/94 19/163 79/166 80/160 
f 19/163 17/167 78/168 79/166 
f 17/167 15/169 77/173 78/168 
f 15/169 13/175 76/178 77/173 
f 11/179 75/182 76/178 13/175 
f 9/183 72/187 75/182 11/179 
f 7/188 73/189 72/187 9/183 
f 5/191 74/193 73/189 7/188 
f 89/7 170/198 169/200 1/1 
f 96/98 272/263 271/264 95/99 
f 97/266 273/275 272/263 96/98 
f 98/296 274/297 273/275 97/266 
f 261/298 284/299 274/297 98/296 
f 100/100 276/117 275/301 99/109 
f 101/101 277/102 276/117 100/100 
f 102/118 278/119 277/102 101/101 
f 103/103 279/120 278/119 102/118 
f 104/104 280/105 279/120 103/103 
f 105/121 281/122 280/105 104/104 
f 252/259 267/260 270/261 251/257 
f 108/128 132/116 131/126 107/262 
f 109/311 133/130 132/116 108/128 
f 110/312 134/216 133/130 109/311 
f 111/110 282/127 134/216 110/312 
f 112/111 283/129 282/127 111/110 
f 95/99 271/264 283/302 112/106 
f 130/113 113/114 128/115 129/112 
f 110/96 109/97 96/98 95/99 112/106 111/95 
f 126/123 125/124 131/126 132/116 
f 127/131 126/123 132/116 133/130 
f 128/115 127/131 133/130 134/216 
f 107/262 131/126 264/258 135/313 
f 50/3 171/12 173/177 187/180 
f 51/48 52/18 204/181 202/184 
f 52/18 53/50 205/185 204/181 
f 53/50 54/52 137/186 205/185 
f 54/52 55/54 138/190 137/186 
f 66/140 67/142 187/180 149/192 
f 208/246 87/81 86/83 207/231 
f 86/83 85/85 160/207 207/231 
f 85/85 84/87 159/158 160/207 
f 84/87 83/89 158/407 159/158 
f 83/89 82/91 157/156 158/407 
f 82/91 81/93 156/154 157/156 
f 81/93 80/160 155/151 156/154 
f 80/160 79/166 154/235 155/151 
f 79/166 78/168 153/243 154/235 
f 78/168 77/173 152/229 153/243 
f 77/173 76/178 151/230 152/229 
f 55/54 56/56 139/194 138/190 
f 56/56 57/58 140/197 139/194 
f 57/58 58/60 141/199 140/197 
f 58/60 59/62 142/201 141/199 
f 59/62 60/64 143/203 142/201 
f 60/64 61/66 144/204 143/203 
f 61/66 62/68 145/208 144/204 
f 62/68 63/70 146/209 145/208 
f 63/70 64/136 147/145 146/209 
f 64/136 65/138 148/146 147/145 
f 65/138 66/140 149/192 148/146 
f 88/79 87/81 208/246 188/408 
f 76/178 75/182 150/149 151/230 
f 75/182 72/187 206/150 150/149 
f 72/187 73/189 203/228 206/150 
f 73/189 74/193 201/377 203/228 
f 168/409 199/375 201/377 74/193 
f 172/365 169/366 161/367 163/364 
f 163/217 166/218 165/219 162/220 
f 168/409 167/411 161/412 164/410 
f 162/220 165/219 200/221 198/222 
f 170/198 196/195 197/239 164/410 
f 163/364 161/367 167/361 166/360 
f 164/410 197/239 199/375 168/409 
f 166/218 6/14 51/48 165/219 
f 74/193 5/191 167/411 168/409 
f 165/219 51/48 202/184 200/221 
f 163/217 162/220 171/12 172/10 
f 170/198 164/410 161/412 169/200 
f 171/12 162/220 198/222 173/177 
f 2/355 1/354 169/366 172/365 
f 89/7 188/408 196/195 170/198 
f 181/369 179/370 180/371 182/368 
f 186/227 181/383 182/384 185/223 
f 180/414 179/415 183/416 184/417 
f 177/6 50/3 187/180 178/385 
f 89/7 176/5 190/418 188/408 
f 67/142 68/144 178/385 187/180 
f 90/77 88/79 188/408 190/418 
f 3/372 4/373 179/370 181/369 
f 174/357 175/356 182/368 180/371 
f 49/176 3/174 181/383 186/227 
f 175/8 177/6 185/223 182/384 
f 179/415 4/15 94/13 183/416 
f 184/417 176/5 174/4 180/414 
f 184/417 189/419 190/418 176/5 
f 185/223 177/6 178/385 191/386 
f 183/416 192/420 189/419 184/417 
f 186/227 185/223 191/386 193/387 
f 93/47 92/73 192/420 194/11 
f 186/227 193/387 195/172 49/176 
f 91/75 90/77 190/418 189/419 
f 178/385 68/144 69/161 191/386 
f 92/73 91/75 189/419 192/420 
f 191/386 69/161 70/164 193/387 
f 183/416 94/13 194/11 192/420 
f 193/387 70/164 71/170 195/172 
f 224/388 209/389 138/190 139/194 
f 244/157 234/244 153/243 152/229 
f 141/199 211/390 210/391 140/197 
f 142/201 225/392 211/390 141/199 
f 245/152 235/153 156/154 155/151 
f 235/153 236/155 157/156 156/154 
f 145/208 214/393 213/394 144/204 
f 146/209 226/225 214/393 145/208 
f 246/159 237/206 160/207 159/158 
f 148/146 227/147 215/214 147/145 
f 247/237 238/245 208/246 207/231 
f 187/180 217/395 216/396 149/192 
f 173/177 218/397 217/395 187/180 
f 196/195 239/196 240/236 197/239 
f 240/236 241/405 199/375 197/239 
f 241/405 242/406 201/377 199/375 
f 222/398 221/399 202/184 204/181 
f 205/185 228/400 222/398 204/181 
f 206/150 248/202 243/205 150/149 
f 138/190 209/389 223/401 137/186 
f 244/277 229/278 209/279 224/276 
f 139/194 140/197 210/391 224/388 
f 230/212 234/280 210/281 211/213 
f 245/211 230/212 211/213 225/210 
f 142/201 143/203 212/402 225/392 
f 143/203 144/204 213/394 212/402 
f 231/423 236/424 213/425 214/224 
f 246/427 231/423 214/224 226/426 
f 146/209 147/145 215/214 226/225 
f 247/287 237/288 215/289 227/286 
f 148/146 149/192 216/396 227/147 
f 232/291 238/292 216/293 217/290 
f 239/295 232/291 217/290 218/294 
f 218/397 173/177 198/222 219/403 
f 198/222 200/221 220/404 219/403 
f 200/221 202/184 221/399 220/404 
f 233/379 242/376 221/380 222/378 
f 248/284 233/379 222/378 228/285 
f 205/185 137/186 223/401 228/400 
f 229/278 243/282 223/283 209/279 
f 224/276 210/281 234/280 244/277 
f 225/210 212/428 235/429 245/211 
f 212/428 213/425 236/424 235/429 
f 226/426 215/430 237/431 246/427 
f 227/286 216/293 238/292 247/287 
f 218/294 219/381 240/241 239/295 
f 219/381 220/382 241/374 240/241 
f 220/382 221/380 242/376 241/374 
f 228/285 223/283 243/282 248/284 
f 152/229 151/230 229/233 244/157 
f 154/235 153/243 234/244 230/234 
f 155/151 154/235 230/234 245/152 
f 158/407 157/156 236/155 231/413 
f 159/158 158/407 231/413 246/159 
f 207/231 160/207 237/206 247/237 
f 188/408 208/246 238/245 232/421 
f 239/196 196/195 188/408 232/421 
f 203/228 201/377 242/406 233/232 
f 206/150 203/228 233/232 248/202 
f 151/230 150/149 243/205 229/233 
f 135/313 264/258 265/315 254/314 
f 254/314 265/315 266/317 253/316 
f 253/316 266/317 267/260 252/259 
f 124/319 263/320 268/321 260/318 
f 260/318 268/321 269/323 259/322 
f 259/322 269/323 270/261 258/256 
f 254/107 253/108 100/100 99/109 
f 118/250 256/251 255/252 117/132 
f 253/108 252/134 101/101 100/100 
f 119/253 257/254 256/251 118/250 
f 252/134 251/247 102/118 101/101 
f 120/255 258/256 257/254 119/253 
f 251/247 250/248 103/103 102/118 
f 120/255 121/327 259/322 258/256 
f 250/248 249/249 104/104 103/103 
f 122/328 260/318 259/322 121/327 
f 249/249 106/334 105/121 104/104 
f 123/329 124/319 260/318 122/328 
f 99/109 275/301 284/299 261/298 
f 117/132 255/252 136/135 262/330 
f 135/335 254/107 99/109 261/298 
f 262/330 136/135 125/124 116/331 
f 107/336 135/335 261/298 98/296 
f 257/254 258/256 270/261 267/260 
f 136/135 255/252 265/315 264/258 
f 255/252 256/251 266/317 265/315 
f 256/251 257/254 267/260 266/317 
f 106/324 249/325 268/321 263/320 
f 249/325 250/326 269/323 268/321 
f 250/326 251/257 270/261 269/323 
f 131/126 125/124 264/258 
f 125/124 136/135 264/258 
f 116/331 125/124 126/123 115/332 
f 108/337 107/336 98/296 97/266 
f 109/97 108/337 97/266 96/98 
f 115/332 126/123 127/131 114/333 
f 114/333 127/131 128/115 113/114 
f 114/303 113/304 271/226 272/215 
f 115/305 114/303 272/215 273/238 
f 116/306 115/305 273/238 274/240 
f 262/307 116/306 274/240 284/242 
f 118/308 117/309 275/273 276/133 
f 119/269 118/308 276/133 277/125 
f 120/422 119/269 277/125 278/265 
f 121/271 120/422 278/265 279/267 
f 122/270 121/271 279/267 280/268 
f 123/272 122/270 280/268 281/300 
f 130/113 129/112 282/127 283/129 
f 113/304 130/310 283/274 271/226 
f 117/309 262/307 284/242 275/273 
f 282/127 128/115 134/216 
f 282/127 129/112 128/115 
# 277 polygons - 4 triangles

#
# object ScissorRight
#

v  0.0008 -0.0019 0.0350
v  0.0008 0.0020 0.0350
v  0.0004 0.0020 0.0085
v  0.0004 -0.0019 0.0085
v  0.0020 -0.0019 0.0533
v  0.0020 0.0020 0.0533
v  0.0032 -0.0019 0.0597
v  0.0032 0.0020 0.0597
v  0.0050 -0.0019 0.0620
v  0.0050 0.0020 0.0620
v  0.0082 -0.0019 0.0644
v  0.0082 0.0020 0.0644
v  0.0116 -0.0019 0.0654
v  0.0116 0.0020 0.0654
v  0.0156 -0.0019 0.0657
v  0.0156 0.0020 0.0657
v  0.0195 -0.0019 0.0649
v  0.0195 0.0020 0.0649
v  0.0230 -0.0019 0.0629
v  0.0230 0.0020 0.0629
v  0.0252 -0.0019 0.0604
v  0.0252 0.0020 0.0604
v  0.0269 -0.0019 0.0576
v  0.0269 0.0020 0.0576
v  0.0280 -0.0019 0.0539
v  0.0280 0.0020 0.0539
v  0.0276 -0.0019 0.0498
v  0.0276 0.0020 0.0498
v  0.0261 -0.0019 0.0459
v  0.0261 0.0020 0.0459
v  0.0227 -0.0019 0.0415
v  0.0227 0.0020 0.0415
v  0.0195 -0.0019 0.0378
v  0.0195 0.0020 0.0378
v  0.0172 -0.0019 0.0348
v  0.0172 0.0020 0.0348
v  0.0156 -0.0019 0.0320
v  0.0156 0.0020 0.0320
v  0.0139 -0.0019 0.0288
v  0.0139 0.0020 0.0288
v  0.0121 -0.0019 0.0242
v  0.0121 0.0020 0.0242
v  0.0097 -0.0019 0.0141
v  0.0097 0.0020 0.0141
v  0.0090 -0.0019 0.0087
v  0.0090 0.0020 0.0087
v  0.0046 -0.0019 0.0082
v  0.0046 0.0020 0.0082
v  0.0010 0.0023 0.0093
v  0.0015 0.0023 0.0349
v  0.0025 0.0023 0.0531
v  0.0037 0.0023 0.0592
v  0.0053 0.0023 0.0614
v  0.0085 0.0023 0.0638
v  0.0118 0.0023 0.0648
v  0.0155 0.0023 0.0650
v  0.0194 0.0023 0.0643
v  0.0226 0.0023 0.0625
v  0.0248 0.0023 0.0600
v  0.0264 0.0023 0.0571
v  0.0275 0.0023 0.0537
v  0.0270 0.0023 0.0497
v  0.0255 0.0023 0.0461
v  0.0222 0.0023 0.0418
v  0.0189 0.0023 0.0380
v  0.0166 0.0023 0.0350
v  0.0149 0.0023 0.0325
v  0.0133 0.0023 0.0293
v  0.0115 0.0023 0.0246
v  0.0090 0.0023 0.0142
v  0.0083 0.0023 0.0094
v  0.0053 -0.0023 0.0614
v  0.0037 -0.0023 0.0592
v  0.0025 -0.0023 0.0531
v  0.0085 -0.0023 0.0638
v  0.0118 -0.0023 0.0648
v  0.0155 -0.0023 0.0650
v  0.0194 -0.0023 0.0643
v  0.0226 -0.0023 0.0625
v  0.0248 -0.0023 0.0600
v  0.0264 -0.0023 0.0571
v  0.0275 -0.0023 0.0537
v  0.0270 -0.0023 0.0497
v  0.0255 -0.0023 0.0461
v  0.0222 -0.0023 0.0418
v  0.0189 -0.0023 0.0380
v  0.0166 -0.0023 0.0350
v  0.0149 -0.0023 0.0325
v  0.0015 -0.0023 0.0349
v  0.0133 -0.0023 0.0293
v  0.0115 -0.0023 0.0246
v  0.0090 -0.0023 0.0142
v  0.0083 -0.0023 0.0094
v  0.0010 -0.0023 0.0093
v  -0.0016 0.0000 -0.0637
v  -0.0036 0.0000 -0.0445
v  -0.0051 0.0000 -0.0248
v  -0.0061 0.0000 -0.0062
v  -0.0057 0.0000 0.0016
v  -0.0050 0.0000 0.0029
v  -0.0037 0.0000 0.0038
v  -0.0008 0.0000 0.0047
v  0.0008 0.0000 0.0049
v  0.0016 0.0000 0.0061
v  0.0020 0.0000 0.0086
v  0.0063 0.0000 0.0089
v  0.0059 0.0000 -0.0046
v  0.0044 0.0000 -0.0220
v  0.0027 0.0000 -0.0439
v  0.0010 0.0000 -0.0640
v  0.0000 0.0000 -0.0653
v  -0.0007 0.0000 -0.0657
v  -0.0016 0.0014 -0.0637
v  -0.0036 0.0014 -0.0445
v  -0.0051 0.0014 -0.0248
v  -0.0061 0.0014 -0.0062
v  -0.0057 0.0014 0.0016
v  -0.0050 0.0014 0.0029
v  -0.0037 0.0014 0.0038
v  -0.0008 0.0014 0.0047
v  0.0008 0.0014 0.0049
v  0.0016 0.0014 0.0061
v  0.0020 0.0014 0.0086
v  0.0063 0.0014 0.0089
v  0.0031 0.0014 -0.0046
v  0.0022 0.0014 -0.0219
v  0.0011 0.0014 -0.0439
v  0.0001 0.0014 -0.0641
v  -0.0002 0.0014 -0.0653
v  -0.0007 0.0014 -0.0657
v  0.0059 0.0002 -0.0046
v  0.0044 0.0002 -0.0220
v  0.0027 0.0002 -0.0439
v  0.0010 0.0002 -0.0640
v  0.0060 0.0000 -0.0033
v  0.0060 0.0014 -0.0033
v  0.0092 0.0023 0.0621
v  0.0121 0.0023 0.0631
v  0.0155 0.0023 0.0634
v  0.0188 0.0023 0.0626
v  0.0217 0.0023 0.0608
v  0.0234 0.0023 0.0589
v  0.0250 0.0023 0.0564
v  0.0258 0.0023 0.0534
v  0.0253 0.0023 0.0496
v  0.0237 0.0023 0.0465
v  0.0203 0.0023 0.0423
v  0.0169 0.0023 0.0390
v  0.0124 0.0023 0.0355
v  0.0092 -0.0023 0.0621
v  0.0121 -0.0023 0.0631
v  0.0155 -0.0023 0.0634
v  0.0188 -0.0023 0.0626
v  0.0217 -0.0023 0.0608
v  0.0235 -0.0023 0.0589
v  0.0250 -0.0023 0.0564
v  0.0258 -0.0023 0.0534
v  0.0254 -0.0023 0.0496
v  0.0237 -0.0023 0.0465
v  0.0203 -0.0023 0.0423
v  0.0012 -0.0019 0.0409
v  0.0018 0.0023 0.0409
v  0.0012 0.0020 0.0409
v  0.0018 -0.0023 0.0409
v  0.0021 0.0023 0.0461
v  0.0015 0.0020 0.0462
v  0.0015 -0.0019 0.0462
v  0.0021 -0.0023 0.0461
v  0.0009 -0.0019 0.0373
v  0.0016 -0.0023 0.0373
v  0.0016 0.0023 0.0373
v  0.0009 0.0020 0.0373
v  0.0071 0.0023 0.0368
v  0.0007 -0.0019 0.0328
v  0.0007 0.0020 0.0328
v  0.0014 -0.0023 0.0328
v  0.0014 0.0023 0.0328
v  0.0084 0.0023 0.0324
v  0.0005 -0.0019 0.0148
v  0.0007 -0.0019 0.0266
v  0.0005 0.0020 0.0148
v  0.0007 0.0020 0.0266
v  0.0012 -0.0023 0.0149
v  0.0013 -0.0023 0.0266
v  0.0013 0.0023 0.0266
v  0.0012 0.0023 0.0149
v  0.0097 0.0023 0.0354
v  0.0097 -0.0023 0.0354
v  0.0064 -0.0023 0.0259
v  0.0084 -0.0023 0.0324
v  0.0064 0.0023 0.0259
v  0.0051 -0.0023 0.0145
v  0.0051 0.0023 0.0145
v  0.0047 -0.0023 0.0090
v  0.0047 0.0023 0.0090
v  0.0071 -0.0023 0.0367
v  0.0049 -0.0023 0.0409
v  0.0049 0.0023 0.0409
v  0.0040 -0.0023 0.0460
v  0.0040 0.0023 0.0460
v  0.0039 -0.0023 0.0524
v  0.0039 0.0023 0.0524
v  0.0052 -0.0023 0.0578
v  0.0052 0.0023 0.0578
v  0.0067 0.0023 0.0600
v  0.0067 -0.0023 0.0600
v  0.0169 -0.0023 0.0390
v  0.0124 -0.0023 0.0354
v  0.0122 0.0019 0.0624
v  0.0186 0.0019 0.0620
v  0.0214 0.0019 0.0602
v  0.0244 0.0019 0.0560
v  0.0252 0.0019 0.0533
v  0.0247 0.0019 0.0496
v  0.0200 0.0019 0.0428
v  0.0124 0.0019 0.0362
v  0.0099 0.0019 0.0362
v  0.0075 0.0019 0.0375
v  0.0054 0.0019 0.0413
v  0.0046 0.0019 0.0461
v  0.0044 0.0019 0.0522
v  0.0057 0.0019 0.0575
v  0.0094 0.0019 0.0614
v  0.0155 0.0019 0.0627
v  0.0230 0.0019 0.0584
v  0.0232 0.0019 0.0467
v  0.0168 0.0019 0.0396
v  0.0071 0.0019 0.0595
v  0.0122 -0.0018 0.0624
v  0.0214 -0.0018 0.0602
v  0.0247 -0.0018 0.0496
v  0.0099 -0.0018 0.0362
v  0.0057 -0.0018 0.0575
v  0.0186 -0.0018 0.0620
v  0.0244 -0.0018 0.0560
v  0.0252 -0.0018 0.0533
v  0.0200 -0.0018 0.0428
v  0.0124 -0.0018 0.0362
v  0.0075 -0.0018 0.0375
v  0.0054 -0.0018 0.0413
v  0.0046 -0.0018 0.0461
v  0.0044 -0.0018 0.0522
v  0.0094 -0.0018 0.0614
v  0.0155 -0.0018 0.0627
v  0.0230 -0.0018 0.0584
v  0.0232 -0.0018 0.0467
v  0.0168 -0.0018 0.0396
v  0.0071 -0.0018 0.0595
v  0.0062 0.0000 0.0061
v  0.0062 0.0000 0.0049
v  0.0062 0.0000 0.0047
v  0.0062 0.0000 0.0038
v  0.0061 0.0000 0.0029
v  0.0061 0.0000 0.0016
v  0.0061 0.0014 0.0016
v  0.0061 0.0014 0.0029
v  0.0062 0.0014 0.0038
v  0.0062 0.0014 0.0047
v  0.0062 0.0014 0.0049
v  0.0062 0.0014 0.0061
v  -0.0060 0.0000 -0.0032
v  -0.0060 0.0014 -0.0032
v  0.0063 0.0002 0.0089
v  0.0060 0.0002 -0.0033
v  0.0061 0.0002 0.0016
v  0.0061 0.0002 0.0029
v  0.0062 0.0002 0.0038
v  0.0062 0.0002 0.0061
v  0.0062 0.0002 0.0049
v  0.0062 0.0002 0.0047
v  -0.0016 0.0002 -0.0637
v  -0.0036 0.0002 -0.0445
v  -0.0051 0.0002 -0.0248
v  -0.0061 0.0002 -0.0062
v  -0.0057 0.0002 0.0016
v  -0.0050 0.0002 0.0029
v  -0.0037 0.0002 0.0038
v  -0.0008 0.0002 0.0047
v  0.0008 0.0002 0.0049
v  0.0016 0.0002 0.0061
v  0.0020 0.0002 0.0086
v  0.0000 0.0002 -0.0653
v  -0.0007 0.0002 -0.0657
v  -0.0060 0.0002 -0.0032
v  -0.0000 -0.0015 -0.0024
v  -0.0012 -0.0015 -0.0021
v  -0.0021 -0.0015 -0.0012
v  -0.0025 -0.0015 0.0000
v  -0.0021 -0.0015 0.0013
v  0.0012 -0.0015 -0.0021
v  -0.0000 0.0016 -0.0024
v  -0.0012 0.0016 -0.0021
v  -0.0021 0.0016 -0.0012
v  -0.0025 0.0016 0.0000
v  -0.0021 0.0016 0.0013
v  0.0012 0.0016 -0.0021
v  0.0011 -0.0015 -0.0021
v  0.0006 -0.0015 -0.0021
v  0.0000 -0.0015 -0.0021
v  -0.0006 -0.0015 -0.0021
v  -0.0011 -0.0015 -0.0021
v  0.0021 -0.0015 -0.0012
v  0.0019 -0.0015 -0.0012
v  0.0011 -0.0015 -0.0012
v  0.0000 -0.0015 -0.0012
v  -0.0011 -0.0015 -0.0012
v  -0.0019 -0.0015 -0.0012
v  0.0025 -0.0015 0.0000
v  0.0021 -0.0015 0.0000
v  0.0012 -0.0015 0.0000
v  0.0000 -0.0015 0.0000
v  -0.0012 -0.0015 0.0000
v  -0.0021 -0.0015 0.0000
v  0.0021 -0.0015 0.0013
v  0.0019 -0.0015 0.0013
v  0.0011 -0.0015 0.0013
v  0.0000 -0.0015 0.0013
v  -0.0011 -0.0015 0.0013
v  -0.0019 -0.0015 0.0013
v  -0.0012 -0.0015 0.0022
v  0.0012 -0.0015 0.0022
v  0.0011 -0.0015 0.0022
v  0.0006 -0.0015 0.0022
v  0.0000 -0.0015 0.0022
v  -0.0006 -0.0015 0.0022
v  -0.0011 -0.0015 0.0022
v  0.0000 -0.0015 0.0025
v  -0.0011 0.0018 -0.0021
v  -0.0006 0.0020 -0.0021
v  -0.0000 0.0020 -0.0021
v  0.0006 0.0020 -0.0021
v  0.0011 0.0018 -0.0021
v  -0.0019 0.0020 -0.0012
v  -0.0011 0.0023 -0.0012
v  -0.0000 0.0024 -0.0012
v  0.0011 0.0023 -0.0012
v  0.0019 0.0020 -0.0012
v  -0.0021 0.0020 0.0000
v  -0.0012 0.0024 0.0000
v  -0.0000 0.0025 0.0000
v  0.0012 0.0024 0.0000
v  0.0021 0.0020 0.0000
v  -0.0019 0.0020 0.0013
v  -0.0011 0.0023 0.0013
v  -0.0000 0.0024 0.0013
v  0.0011 0.0023 0.0013
v  0.0019 0.0020 0.0013
v  -0.0011 0.0018 0.0022
v  -0.0006 0.0020 0.0022
v  0.0000 0.0020 0.0022
v  0.0006 0.0020 0.0022
v  0.0011 0.0018 0.0022
v  0.0021 0.0016 -0.0012
v  0.0025 0.0016 0.0000
v  0.0021 0.0016 0.0013
v  -0.0012 0.0016 0.0022
v  0.0012 0.0016 0.0022
v  0.0000 0.0016 0.0025
# 358 vertices

vt 0.3590 0.5687 0.0000
vt 0.3415 0.5778 0.0000
vt 0.3330 0.5776 0.0000
vt 0.3611 0.5404 0.0000
vt 0.3702 0.5416 0.0000
vt 0.3314 0.5504 0.0000
vt 0.3675 0.5688 0.0000
vt 0.3405 0.5495 0.0000
vt 0.4499 0.2219 0.0000
vt 0.3427 0.6087 0.0000
vt 0.4503 0.2330 0.0000
vt 0.3340 0.6089 0.0000
vt 0.4011 0.2319 0.0000
vt 0.3443 0.8219 0.0000
vt 0.3940 0.2203 0.0000
vt 0.3356 0.9066 0.0000
vt 0.5072 0.2362 0.0000
vt 0.3286 0.9014 0.0000
vt 0.6033 0.2055 0.0000
vt 0.6033 0.1364 0.0000
vt 0.6282 0.1364 0.0000
vt 0.6282 0.2055 0.0000
vt 0.5746 0.1364 0.0000
vt 0.5746 0.2055 0.0000
vt 0.5377 0.2055 0.0000
vt 0.5377 0.1364 0.0000
vt 0.4972 0.2055 0.0000
vt 0.4972 0.1364 0.0000
vt 0.4579 0.2055 0.0000
vt 0.4579 0.1364 0.0000
vt 0.4141 0.2055 0.0000
vt 0.4141 0.1364 0.0000
vt 0.3776 0.2055 0.0000
vt 0.3776 0.1364 0.0000
vt 0.3469 0.2055 0.0000
vt 0.3469 0.1364 0.0000
vt 0.3194 0.1364 0.0000
vt 0.3194 0.2055 0.0000
vt 0.2877 0.1364 0.0000
vt 0.2877 0.2055 0.0000
vt 0.2416 0.2055 0.0000
vt 0.2416 0.1364 0.0000
vt 0.1401 0.2055 0.0000
vt 0.1401 0.1364 0.0000
vt 0.0868 0.2055 0.0000
vt 0.0868 0.1364 0.0000
vt 0.4970 0.2443 0.0000
vt 0.3371 0.8195 0.0000
vt 0.3140 0.9391 0.0000
vt 0.3089 0.9319 0.0000
vt 0.2744 0.9749 0.0000
vt 0.2698 0.9672 0.0000
vt 0.2293 0.9909 0.0000
vt 0.2272 0.9831 0.0000
vt 0.1775 0.9986 0.0000
vt 0.1774 0.9892 0.0000
vt 0.1251 0.9925 0.0000
vt 0.1265 0.9846 0.0000
vt 0.0774 0.9698 0.0000
vt 0.0819 0.9632 0.0000
vt 0.0447 0.9392 0.0000
vt 0.0500 0.9331 0.0000
vt 0.0201 0.9029 0.0000
vt 0.0256 0.8961 0.0000
vt 0.0015 0.8553 0.0000
vt 0.0086 0.8521 0.0000
vt 0.0032 0.8012 0.0000
vt 0.0108 0.7993 0.0000
vt 0.0186 0.7478 0.0000
vt 0.0263 0.7498 0.0000
vt 0.0589 0.6864 0.0000
vt 0.5072 0.3074 0.0000
vt 0.4980 0.3078 0.0000
vt 0.5240 0.4448 0.0000
vt 0.5149 0.4488 0.0000
vt 0.5399 0.5082 0.0000
vt 0.5321 0.5133 0.0000
vt 0.5575 0.5526 0.0000
vt 0.5479 0.5583 0.0000
vt 0.5753 0.5914 0.0000
vt 0.5662 0.5929 0.0000
vt 0.5998 0.6352 0.0000
vt 0.5918 0.6368 0.0000
vt 0.6371 0.6883 0.0000
vt 0.6300 0.6908 0.0000
vt 0.6749 0.7512 0.0000
vt 0.6671 0.7529 0.0000
vt 0.6883 0.8052 0.0000
vt 0.6807 0.8030 0.0000
vt 0.6879 0.8592 0.0000
vt 0.6809 0.8558 0.0000
vt 0.6674 0.9061 0.0000
vt 0.6621 0.8991 0.0000
vt 0.6414 0.9414 0.0000
vt 0.8625 0.9841 0.0000
vt 0.8512 0.9676 0.0000
vt 0.8470 0.7087 0.0000
vt 0.9259 0.7221 0.0000
vt 0.8846 0.9661 0.0000
vt 0.9835 0.1178 0.0000
vt 0.9691 0.1060 0.0000
vt 0.9710 0.1038 0.0000
vt 0.9127 0.0870 0.0000
vt 0.9033 0.0708 0.0000
vt 0.9061 0.0698 0.0000
vt 0.8718 0.9895 0.0000
vt 0.8416 0.1249 0.0000
vt 0.8423 0.1082 0.0000
vt 0.9927 0.1345 0.0000
vt 0.7888 0.9843 0.0000
vt 0.7830 0.9942 0.0000
vt 0.7695 0.9794 0.0000
vt 0.7652 0.9863 0.0000
vt 0.7531 0.9639 0.0000
vt 0.7738 0.9668 0.0000
vt 0.8101 0.4269 0.0000
vt 0.9860 0.1162 0.0000
vt 0.9332 0.0914 0.0000
vt 0.9344 0.0886 0.0000
vt 0.9144 0.0848 0.0000
vt 0.9000 0.0395 0.0000
vt 0.9031 0.0399 0.0000
vt 0.7814 0.4276 0.0000
vt 0.7854 0.2050 0.0000
vt 0.8255 0.3028 0.0000
vt 0.8213 0.2047 0.0000
vt 0.7864 0.9834 0.0000
vt 0.8133 0.4272 0.0000
vt 0.7803 0.9928 0.0000
vt 0.7973 0.7080 0.0000
vt 0.7786 0.7088 0.0000
vt 0.6690 0.1302 0.0000
vt 0.8255 0.3150 0.0000
vt 0.8427 0.0971 0.0000
vt 0.8102 0.1812 0.0000
vt 0.0659 0.6893 0.0000
vt 0.0983 0.6349 0.0000
vt 0.1062 0.6367 0.0000
vt 0.1244 0.5921 0.0000
vt 0.1335 0.5939 0.0000
vt 0.1438 0.5539 0.0000
vt 0.1531 0.5600 0.0000
vt 0.1631 0.5103 0.0000
vt 0.1707 0.5157 0.0000
vt 0.0917 0.6952 0.0000
vt 0.1329 0.6477 0.0000
vt 0.1358 0.6569 0.0000
vt 0.1814 0.4475 0.0000
vt 0.4282 0.9386 0.0000
vt 0.3977 0.9073 0.0000
vt 0.6202 0.9185 0.0000
vt 0.6115 0.9086 0.0000
vt 0.6337 0.8797 0.0000
vt 0.6445 0.8871 0.0000
vt 0.6491 0.8460 0.0000
vt 0.6596 0.8498 0.0000
vt 0.5054 0.9535 0.0000
vt 0.6447 0.7568 0.0000
vt 0.6342 0.7592 0.0000
vt 0.6363 0.9351 0.0000
vt 0.1904 0.4519 0.0000
vt 0.2037 0.3109 0.0000
vt 0.6075 0.9707 0.0000
vt 0.2128 0.3117 0.0000
vt 0.2064 0.2398 0.0000
vt 0.6032 0.9639 0.0000
vt 0.5590 0.9915 0.0000
vt 0.5579 0.9836 0.0000
vt 0.5063 0.9956 0.0000
vt 0.2163 0.2483 0.0000
vt 0.2643 0.2278 0.0000
vt 0.2634 0.2388 0.0000
vt 0.5068 0.9862 0.0000
vt 0.3202 0.2283 0.0000
vt 0.4549 0.9858 0.0000
vt 0.3126 0.2397 0.0000
vt 0.2598 0.6085 0.0000
vt 0.4573 0.9781 0.0000
vt 0.4105 0.9681 0.0000
vt 0.2242 0.5932 0.0000
vt 0.3068 0.8845 0.0000
vt 0.4153 0.9606 0.0000
vt 0.3723 0.9307 0.0000
vt 0.3192 0.8112 0.0000
vt 0.2895 0.9148 0.0000
vt 0.2583 0.9446 0.0000
vt 0.3777 0.9238 0.0000
vt 0.3520 0.8974 0.0000
vt 0.3591 0.8925 0.0000
vt 0.2208 0.9617 0.0000
vt 0.3466 0.8125 0.0000
vt 0.1897 0.5962 0.0000
vt 0.3539 0.8103 0.0000
vt 0.1759 0.9680 0.0000
vt 0.4390 0.6015 0.0000
vt 0.4443 0.6129 0.0000
vt 0.1318 0.9618 0.0000
vt 0.3653 0.6000 0.0000
vt 0.0914 0.9403 0.0000
vt 0.3566 0.5995 0.0000
vt 0.0669 0.9169 0.0000
vt 0.4075 0.8989 0.0000
vt 0.0442 0.8850 0.0000
vt 0.0302 0.8472 0.0000
vt 0.4351 0.9276 0.0000
vt 0.5957 0.7038 0.0000
vt 0.6043 0.6955 0.0000
vt 0.0325 0.7960 0.0000
vt 0.0510 0.7532 0.0000
vt 0.5062 0.0712 0.0000
vt 0.5062 0.1353 0.0000
vt 0.4885 0.1353 0.0000
vt 0.4885 0.0712 0.0000
vt 0.0984 0.7025 0.0000
vt 0.8255 0.7848 0.0000
vt 0.7931 0.9675 0.0000
vt 0.3430 0.6567 0.0000
vt 0.3435 0.7274 0.0000
vt 0.3355 0.7268 0.0000
vt 0.3350 0.6573 0.0000
vt 0.3106 0.7270 0.0000
vt 0.2938 0.6609 0.0000
vt 0.3266 0.4682 0.0000
vt 0.5941 0.0712 0.0000
vt 0.0589 0.7563 0.0000
vt 0.8255 0.9759 0.0000
vt 0.3166 0.3132 0.0000
vt 0.3825 0.8762 0.0000
vt 0.5058 0.9646 0.0000
vt 0.4656 0.9572 0.0000
vt 0.5649 0.6465 0.0000
vt 0.3919 0.8703 0.0000
vt 0.4687 0.9447 0.0000
vt 0.5882 0.9292 0.0000
vt 0.5941 0.9409 0.0000
vt 0.4119 0.6613 0.0000
vt 0.5590 0.6578 0.0000
vt 0.8255 0.5901 0.0000
vt 0.4033 0.6538 0.0000
vt 0.8255 0.4049 0.0000
vt 0.1640 0.1353 0.0000
vt 0.8255 0.3760 0.0000
vt 0.5541 0.9603 0.0000
vt 0.5513 0.9494 0.0000
vt 0.5093 0.6035 0.0000
vt 0.5117 0.5919 0.0000
vt 0.8432 0.0853 0.0000
vt 0.8434 0.0825 0.0000
vt 0.8440 0.0678 0.0000
vt 0.6785 0.1131 0.0000
vt 0.8145 0.1076 0.0000
vt 0.8142 0.1243 0.0000
vt 0.6939 0.1014 0.0000
vt 0.8147 0.0965 0.0000
vt 0.7305 0.0880 0.0000
vt 0.8149 0.0847 0.0000
vt 0.8305 0.0857 0.0000
vt 0.8220 0.1870 0.0000
vt 0.8299 0.0976 0.0000
vt 0.8269 0.0974 0.0000
vt 0.8275 0.0855 0.0000
vt 0.8245 0.2052 0.0000
vt 0.9289 0.7223 0.0000
vt 0.8872 0.9674 0.0000
vt 0.8255 0.2741 0.0000
vt 0.9623 0.4721 0.0000
vt 0.8255 0.2578 0.0000
vt 0.8255 0.2438 0.0000
vt 0.8365 0.3028 0.0000
vt 0.8365 0.2438 0.0000
vt 0.8365 0.2578 0.0000
vt 0.8365 0.2206 0.0000
vt 0.8255 0.3280 0.0000
vt 0.8255 0.9951 0.0000
vt 0.9653 0.4727 0.0000
vt 0.4293 0.0712 0.0000
vt 0.4293 0.1353 0.0000
vt 0.3967 0.1353 0.0000
vt 0.3967 0.0712 0.0000
vt 0.4608 0.1353 0.0000
vt 0.4608 0.0712 0.0000
vt 0.3692 0.1353 0.0000
vt 0.3692 0.0712 0.0000
vt 0.3459 0.1353 0.0000
vt 0.3459 0.0712 0.0000
vt 0.0321 0.0712 0.0000
vt 0.0321 0.1353 0.0000
vt 0.0006 0.1353 0.0000
vt 0.0006 0.0712 0.0000
vt 0.1015 0.0712 0.0000
vt 0.1015 0.1353 0.0000
vt 0.0764 0.1353 0.0000
vt 0.0764 0.0712 0.0000
vt 0.1257 0.0712 0.0000
vt 0.1257 0.1353 0.0000
vt 0.9904 0.2346 0.0000
vt 0.9934 0.2349 0.0000
vt 0.9924 0.1972 0.0000
vt 0.9954 0.1973 0.0000
vt 0.8255 0.2206 0.0000
vt 0.9956 0.1339 0.0000
vt 0.8748 0.9904 0.0000
vt 0.8365 0.7848 0.0000
vt 0.8365 0.9759 0.0000
vt 0.8365 0.5901 0.0000
vt 0.8365 0.4049 0.0000
vt 0.8365 0.3760 0.0000
vt 0.8365 0.3150 0.0000
vt 0.8365 0.3280 0.0000
vt 0.8365 0.9951 0.0000
vt 0.8005 0.7082 0.0000
vt 0.7962 0.9680 0.0000
vt 0.8254 0.1875 0.0000
vt 0.8285 0.1253 0.0000
vt 0.8255 0.1251 0.0000
vt 0.8293 0.1086 0.0000
vt 0.8263 0.1084 0.0000
vt 0.8152 0.0672 0.0000
vt 0.8159 0.0317 0.0000
vt 0.8301 0.0326 0.0000
vt 0.8284 0.0681 0.0000
vt 0.8150 0.0819 0.0000
vt 0.8276 0.0828 0.0000
vt 0.8332 0.0328 0.0000
vt 0.8314 0.0682 0.0000
vt 0.8306 0.0829 0.0000
vt 0.7509 0.0844 0.0000
vt 0.7605 0.0692 0.0000
vt 0.7649 0.0365 0.0000
vt 0.6678 0.1923 0.0000
vt 0.6687 0.2295 0.0000
vt 0.6899 0.4679 0.0000
vt 0.7190 0.7185 0.0000
vt 0.8455 0.0323 0.0000
vt 0.8390 0.1872 0.0000
vt 0.8386 0.2049 0.0000
vt 0.8434 0.4275 0.0000
vt 0.0426 0.1364 0.0000
vt 0.0426 0.2055 0.0000
vt 0.0006 0.2055 0.0000
vt 0.0006 0.1364 0.0000
vt 0.1487 0.0701 0.0000
vt 0.1487 0.0009 0.0000
vt 0.1806 0.0009 0.0000
vt 0.1806 0.0701 0.0000
vt 0.1139 0.0009 0.0000
vt 0.1139 0.0701 0.0000
vt 0.0745 0.0701 0.0000
vt 0.0745 0.0009 0.0000
vt 0.0354 0.0701 0.0000
vt 0.0354 0.0009 0.0000
vt 0.0008 0.0009 0.0000
vt 0.0008 0.0701 0.0000
vt 0.4506 0.0701 0.0000
vt 0.4506 0.0009 0.0000
vt 0.4720 0.0009 0.0000
vt 0.4720 0.0701 0.0000
vt 0.2669 0.0701 0.0000
vt 0.2669 0.0009 0.0000
vt 0.3380 0.0009 0.0000
vt 0.3380 0.0701 0.0000
vt 0.2037 0.0701 0.0000
vt 0.2037 0.0009 0.0000
vt 0.3912 0.0009 0.0000
vt 0.4273 0.0009 0.0000
vt 0.4273 0.0701 0.0000
vt 0.3912 0.0701 0.0000
vt 0.5343 0.0009 0.0000
vt 0.6523 0.0009 0.0000
vt 0.6523 0.0701 0.0000
vt 0.5343 0.0701 0.0000
vt 0.7146 0.0009 0.0000
vt 0.7146 0.0701 0.0000
vt 0.2118 0.1353 0.0000
vt 0.3841 0.7188 0.0000
vt 0.2732 0.1353 0.0000
vt 0.3722 0.8032 0.0000
vt 0.3259 0.0712 0.0000
vt 0.3259 0.1353 0.0000
vt 0.2732 0.0712 0.0000
vt 0.1640 0.0712 0.0000
vt 0.2118 0.0712 0.0000
vt 0.3254 0.3108 0.0000
vt 0.3353 0.4670 0.0000
vt 0.2388 0.5520 0.0000
vt 0.2583 0.4636 0.0000
vt 0.2647 0.3124 0.0000
vt 0.1762 0.9587 0.0000
vt 0.2190 0.9525 0.0000
vt 0.0954 0.9320 0.0000
vt 0.1338 0.9526 0.0000
vt 0.0729 0.9101 0.0000
vt 0.0404 0.7958 0.0000
vt 0.0380 0.8444 0.0000
vt 0.2229 0.6031 0.0000
vt 0.1897 0.6059 0.0000
vt 0.2562 0.6176 0.0000
vt 0.2996 0.8805 0.0000
vt 0.3115 0.8095 0.0000
vt 0.2832 0.9085 0.0000
vt 0.2544 0.9364 0.0000
vt 0.0514 0.8800 0.0000
vt 0.2874 0.6662 0.0000
vt 0.3032 0.7285 0.0000
vt 0.3930 0.7215 0.0000
vt 0.3812 0.8004 0.0000
vt 0.6586 0.7971 0.0000
vt 0.4755 0.5886 0.0000
vt 0.3591 0.7178 0.0000
vt 0.3624 0.6484 0.0000
vt 0.3511 0.7180 0.0000
vt 0.3544 0.6475 0.0000
vt 0.6475 0.7954 0.0000
vt 0.3695 0.4582 0.0000
vt 0.3855 0.3025 0.0000
vt 0.3942 0.3052 0.0000
vt 0.3781 0.4598 0.0000
vt 0.4626 0.5469 0.0000
vt 0.4466 0.4578 0.0000
vt 0.4461 0.3065 0.0000
vt 0.4764 0.5986 0.0000
vt 0.8365 0.2741 0.0000
vt 0.5941 0.1353 0.0000
vt 0.5576 0.1353 0.0000
vt 0.5576 0.0712 0.0000
vt 0.6233 0.0712 0.0000
vt 0.6233 0.1353 0.0000
vt 0.5301 0.0712 0.0000
vt 0.5301 0.1353 0.0000
vt 0.6623 0.0712 0.0000
vt 0.6623 0.1353 0.0000
vt 0.6141 0.2758 0.0000
vt 0.6141 0.2593 0.0000
vt 0.6141 0.2472 0.0000
vt 0.6141 0.2306 0.0000
vt 0.6560 0.2306 0.0000
vt 0.6141 0.3950 0.0000
vt 0.6141 0.3829 0.0000
vt 0.6560 0.3816 0.0000
vt 0.6141 0.3376 0.0000
vt 0.6141 0.3211 0.0000
vt 0.6560 0.3211 0.0000
vt 0.6560 0.3364 0.0000
vt 0.6560 0.2605 0.0000
vt 0.6560 0.2758 0.0000
vt 0.6560 0.2459 0.0000
vt 0.6141 0.2140 0.0000
vt 0.6560 0.2140 0.0000
vt 0.6560 0.3963 0.0000
vt 0.6141 0.3663 0.0000
vt 0.6560 0.3663 0.0000
vt 0.6141 0.3045 0.0000
vt 0.6560 0.3058 0.0000
vt 0.6141 0.2924 0.0000
vt 0.6560 0.2911 0.0000
vt 0.6623 0.2306 0.0000
vt 0.6618 0.2473 0.0000
vt 0.6593 0.2624 0.0000
vt 0.6615 0.2675 0.0000
vt 0.6125 0.2612 0.0000
vt 0.6058 0.2854 0.0000
vt 0.6059 0.2822 0.0000
vt 0.6059 0.2733 0.0000
vt 0.6060 0.2612 0.0000
vt 0.6061 0.2491 0.0000
vt 0.6623 0.2758 0.0000
vt 0.6615 0.2841 0.0000
vt 0.6593 0.2893 0.0000
vt 0.6141 0.3498 0.0000
vt 0.6560 0.3510 0.0000
vt 0.6062 0.2402 0.0000
vt 0.6061 0.2370 0.0000
vt 0.5879 0.3030 0.0000
vt 0.5880 0.2975 0.0000
vt 0.5881 0.2821 0.0000
vt 0.5883 0.2611 0.0000
vt 0.5884 0.2401 0.0000
vt 0.6593 0.3797 0.0000
vt 0.6615 0.3746 0.0000
vt 0.6623 0.3663 0.0000
vt 0.6615 0.3580 0.0000
vt 0.6593 0.3529 0.0000
vt 0.5885 0.2247 0.0000
vt 0.5885 0.2191 0.0000
vt 0.5637 0.3093 0.0000
vt 0.5637 0.3029 0.0000
vt 0.5638 0.2852 0.0000
vt 0.5640 0.2609 0.0000
vt 0.5642 0.2366 0.0000
vt 0.6615 0.2140 0.0000
vt 0.6618 0.3044 0.0000
vt 0.6623 0.3211 0.0000
vt 0.6618 0.3378 0.0000
vt 0.5211 0.3323 0.0000
vt 0.5389 0.3170 0.0000
vt 0.5643 0.2189 0.0000
vt 0.5644 0.2125 0.0000
vt 0.5395 0.3027 0.0000
vt 0.5395 0.2971 0.0000
vt 0.5396 0.2817 0.0000
vt 0.5397 0.2607 0.0000
vt 0.5399 0.2397 0.0000
vt 0.5389 0.3323 0.0000
vt 0.5211 0.3412 0.0000
vt 0.5389 0.3533 0.0000
vt 0.5211 0.3533 0.0000
vt 0.5389 0.3744 0.0000
vt 0.5211 0.3655 0.0000
vt 0.5400 0.2243 0.0000
vt 0.5401 0.2188 0.0000
vt 0.5219 0.2848 0.0000
vt 0.5218 0.2816 0.0000
vt 0.5219 0.2727 0.0000
vt 0.5220 0.2606 0.0000
vt 0.5221 0.2485 0.0000
vt 0.5389 0.3897 0.0000
vt 0.5211 0.3744 0.0000
vt 0.5631 0.3113 0.0000
vt 0.5631 0.3291 0.0000
vt 0.5631 0.3533 0.0000
vt 0.5631 0.3776 0.0000
vt 0.5221 0.2396 0.0000
vt 0.5222 0.2364 0.0000
vt 0.5156 0.2605 0.0000
vt 0.5631 0.3954 0.0000
vt 0.5874 0.3170 0.0000
vt 0.5874 0.3323 0.0000
vt 0.5874 0.3533 0.0000
vt 0.5874 0.3744 0.0000
vt 0.5874 0.3897 0.0000
vt 0.6052 0.3323 0.0000
vt 0.6052 0.3412 0.0000
vt 0.6052 0.3533 0.0000
vt 0.6052 0.3655 0.0000
vt 0.6052 0.3744 0.0000
vt 0.6621 0.3948 0.0000
# 536 texture coords

g ScissorRight
usemtl Material__3
f 286/786 459/787 458/788 285/785 
f 290/790 450/791 451/792 289/789 
f 291/793 292/794 290/790 289/789 
f 294/775 292/794 291/793 293/776 
f 295/773 296/774 294/775 293/776 
f 298/777 296/774 295/773 297/778 
f 299/779 300/780 298/777 297/778 
f 301/781 302/782 300/780 299/779 
f 304/783 302/782 301/781 303/784 
f 305/450 306/451 304/452 303/453 
f 308/454 306/451 305/450 307/455 
f 309/456 310/457 308/454 307/455 
f 311/458 312/459 310/457 309/456 
f 313/460 314/461 312/459 311/458 
f 315/462 316/463 314/461 313/460 
f 317/464 318/465 316/463 315/462 
f 319/466 320/467 318/465 317/464 
f 322/468 320/467 319/466 321/469 
f 324/470 322/468 321/469 323/471 
f 325/472 326/473 324/470 323/471 
f 325/472 327/474 328/475 326/473 
f 329/476 330/477 328/475 327/474 
f 332/769 330/477 329/476 331/770 
f 288/771 287/772 332/769 331/770 
f 334/434 461/437 459/439 286/433 
f 456/441 455/443 334/434 286/433 
f 290/445 292/447 336/449 335/479 
f 292/447 294/480 337/481 336/449 
f 294/480 296/482 338/483 337/481 
f 296/482 298/484 339/485 338/483 
f 300/486 340/487 339/485 298/484 
f 302/488 341/489 340/487 300/486 
f 304/490 342/491 341/489 302/488 
f 306/492 343/493 342/491 304/490 
f 308/494 344/495 343/493 306/492 
f 310/496 345/497 344/495 308/494 
f 312/498 346/499 345/497 310/496 
f 314/500 347/501 346/499 312/498 
f 316/502 348/567 347/501 314/500 
f 318/568 349/569 348/567 316/502 
f 320/570 350/571 349/569 318/568 
f 320/570 322/572 351/573 350/571 
f 322/572 324/574 352/575 351/573 
f 324/574 326/579 353/592 352/575 
f 328/593 354/595 353/592 326/579 
f 328/593 330/596 355/601 354/595 
f 330/596 332/602 479/603 355/601 
f 332/602 287/605 333/607 479/603 
f 458/435 460/436 373/438 285/432 
f 331/440 478/442 378/444 288/446 
f 329/448 377/478 478/442 331/440 
f 327/503 376/504 377/478 329/448 
f 325/505 375/506 376/504 327/503 
f 323/507 374/508 375/506 325/505 
f 321/509 372/510 374/508 323/507 
f 319/511 371/512 372/510 321/509 
f 319/511 317/513 370/514 371/512 
f 317/513 315/515 369/516 370/514 
f 315/515 313/517 368/518 369/516 
f 313/517 311/519 367/520 368/518 
f 311/519 309/521 366/522 367/520 
f 309/521 307/523 365/524 366/522 
f 307/523 305/525 364/591 365/524 
f 305/525 303/594 363/597 364/591 
f 303/594 301/598 362/599 363/597 
f 301/598 299/600 361/604 362/599 
f 299/600 297/606 360/609 361/604 
f 295/610 359/613 360/609 297/606 
f 293/614 356/618 359/613 295/610 
f 291/619 357/620 356/618 293/614 
f 289/622 358/624 357/620 291/619 
f 373/438 454/629 453/631 285/432 
f 380/529 556/694 555/695 379/530 
f 381/697 557/706 556/694 380/529 
f 382/727 558/728 557/706 381/697 
f 545/729 568/730 558/728 382/727 
f 384/531 560/548 559/732 383/540 
f 385/532 561/533 560/548 384/531 
f 386/549 562/550 561/533 385/532 
f 387/534 563/551 562/550 386/549 
f 388/535 564/536 563/551 387/534 
f 389/552 565/553 564/536 388/535 
f 536/690 551/691 554/692 535/688 
f 392/559 416/547 415/557 391/693 
f 393/742 417/561 416/547 392/559 
f 394/743 418/647 417/561 393/742 
f 395/541 566/558 418/647 394/743 
f 396/542 567/560 566/558 395/541 
f 379/530 555/695 567/733 396/537 
f 414/544 397/545 412/546 413/543 
f 394/527 393/528 380/529 379/530 396/537 395/526 
f 410/554 409/555 415/557 416/547 
f 411/562 410/554 416/547 417/561 
f 412/546 411/562 417/561 418/647 
f 391/693 415/557 548/689 419/744 
f 334/434 455/443 457/608 471/611 
f 335/479 336/449 488/612 486/615 
f 336/449 337/481 489/616 488/612 
f 337/481 338/483 421/617 489/616 
f 338/483 339/485 422/621 421/617 
f 350/571 351/573 471/611 433/623 
f 492/677 371/512 370/514 491/662 
f 370/514 369/516 444/638 491/662 
f 369/516 368/518 443/589 444/638 
f 368/518 367/520 442/838 443/589 
f 367/520 366/522 441/587 442/838 
f 366/522 365/524 440/585 441/587 
f 365/524 364/591 439/582 440/585 
f 364/591 363/597 438/666 439/582 
f 363/597 362/599 437/674 438/666 
f 362/599 361/604 436/660 437/674 
f 361/604 360/609 435/661 436/660 
f 339/485 340/487 423/625 422/621 
f 340/487 341/489 424/628 423/625 
f 341/489 342/491 425/630 424/628 
f 342/491 343/493 426/632 425/630 
f 343/493 344/495 427/634 426/632 
f 344/495 345/497 428/635 427/634 
f 345/497 346/499 429/639 428/635 
f 346/499 347/501 430/640 429/639 
f 347/501 348/567 431/576 430/640 
f 348/567 349/569 432/577 431/576 
f 349/569 350/571 433/623 432/577 
f 372/510 371/512 492/677 472/839 
f 360/609 359/613 434/580 435/661 
f 359/613 356/618 490/581 434/580 
f 356/618 357/620 487/659 490/581 
f 357/620 358/624 485/808 487/659 
f 452/840 483/806 485/808 358/624 
f 456/796 453/797 445/798 447/795 
f 447/648 450/649 449/650 446/651 
f 452/840 451/842 445/843 448/841 
f 446/651 449/650 484/652 482/653 
f 454/629 480/626 481/670 448/841 
f 447/795 445/798 451/792 450/791 
f 448/841 481/670 483/806 452/840 
f 450/649 290/445 335/479 449/650 
f 358/624 289/622 451/842 452/840 
f 449/650 335/479 486/615 484/652 
f 447/648 446/651 455/443 456/441 
f 454/629 448/841 445/843 453/631 
f 455/443 446/651 482/653 457/608 
f 286/786 285/785 453/797 456/796 
f 373/438 472/839 480/626 454/629 
f 465/800 463/801 464/802 466/799 
f 470/658 465/814 466/815 469/654 
f 464/845 463/846 467/847 468/848 
f 461/437 334/434 471/611 462/816 
f 373/438 460/436 474/849 472/839 
f 351/573 352/575 462/816 471/611 
f 374/508 372/510 472/839 474/849 
f 287/803 288/804 463/801 465/800 
f 458/788 459/787 466/799 464/802 
f 333/607 287/605 465/814 470/658 
f 459/439 461/437 469/654 466/815 
f 463/846 288/446 378/444 467/847 
f 468/848 460/436 458/435 464/845 
f 468/848 473/850 474/849 460/436 
f 469/654 461/437 462/816 475/817 
f 467/847 476/851 473/850 468/848 
f 470/658 469/654 475/817 477/818 
f 377/478 376/504 476/851 478/442 
f 470/658 477/818 479/603 333/607 
f 375/506 374/508 474/849 473/850 
f 462/816 352/575 353/592 475/817 
f 376/504 375/506 473/850 476/851 
f 475/817 353/592 354/595 477/818 
f 467/847 378/444 478/442 476/851 
f 477/818 354/595 355/601 479/603 
f 508/819 493/820 422/621 423/625 
f 528/588 518/675 437/674 436/660 
f 425/630 495/821 494/822 424/628 
f 426/632 509/823 495/821 425/630 
f 529/583 519/584 440/585 439/582 
f 519/584 520/586 441/587 440/585 
f 429/639 498/824 497/825 428/635 
f 430/640 510/656 498/824 429/639 
f 530/590 521/637 444/638 443/589 
f 432/577 511/578 499/645 431/576 
f 531/668 522/676 492/677 491/662 
f 471/611 501/826 500/827 433/623 
f 457/608 502/828 501/826 471/611 
f 480/626 523/627 524/667 481/670 
f 524/667 525/836 483/806 481/670 
f 525/836 526/837 485/808 483/806 
f 506/829 505/830 486/615 488/612 
f 489/616 512/831 506/829 488/612 
f 490/581 532/633 527/636 434/580 
f 422/621 493/820 507/832 421/617 
f 528/708 513/709 493/710 508/707 
f 423/625 424/628 494/822 508/819 
f 514/643 518/711 494/712 495/644 
f 529/642 514/643 495/644 509/641 
f 426/632 427/634 496/833 509/823 
f 427/634 428/635 497/825 496/833 
f 515/854 520/855 497/856 498/655 
f 530/858 515/854 498/655 510/857 
f 430/640 431/576 499/645 510/656 
f 531/718 521/719 499/720 511/717 
f 432/577 433/623 500/827 511/578 
f 516/722 522/723 500/724 501/721 
f 523/726 516/722 501/721 502/725 
f 502/828 457/608 482/653 503/834 
f 482/653 484/652 504/835 503/834 
f 484/652 486/615 505/830 504/835 
f 517/810 526/807 505/811 506/809 
f 532/715 517/810 506/809 512/716 
f 489/616 421/617 507/832 512/831 
f 513/709 527/713 507/714 493/710 
f 508/707 494/712 518/711 528/708 
f 509/641 496/859 519/860 529/642 
f 496/859 497/856 520/855 519/860 
f 510/857 499/861 521/862 530/858 
f 511/717 500/724 522/723 531/718 
f 502/725 503/812 524/672 523/726 
f 503/812 504/813 525/805 524/672 
f 504/813 505/811 526/807 525/805 
f 512/716 507/714 527/713 532/715 
f 436/660 435/661 513/664 528/588 
f 438/666 437/674 518/675 514/665 
f 439/582 438/666 514/665 529/583 
f 442/838 441/587 520/586 515/844 
f 443/589 442/838 515/844 530/590 
f 491/662 444/638 521/637 531/668 
f 472/839 492/677 522/676 516/852 
f 523/627 480/626 472/839 516/852 
f 487/659 485/808 526/837 517/663 
f 490/581 487/659 517/663 532/633 
f 435/661 434/580 527/636 513/664 
f 419/744 548/689 549/746 538/745 
f 538/745 549/746 550/748 537/747 
f 537/747 550/748 551/691 536/690 
f 408/750 547/751 552/752 544/749 
f 544/749 552/752 553/754 543/753 
f 543/753 553/754 554/692 542/687 
f 538/538 537/539 384/531 383/540 
f 402/681 540/682 539/683 401/563 
f 537/539 536/565 385/532 384/531 
f 403/684 541/685 540/682 402/681 
f 536/565 535/678 386/549 385/532 
f 404/686 542/687 541/685 403/684 
f 535/678 534/679 387/534 386/549 
f 404/686 405/758 543/753 542/687 
f 534/679 533/680 388/535 387/534 
f 406/759 544/749 543/753 405/758 
f 533/680 390/765 389/552 388/535 
f 407/760 408/750 544/749 406/759 
f 383/540 559/732 568/730 545/729 
f 401/563 539/683 420/566 546/761 
f 419/766 538/538 383/540 545/729 
f 546/761 420/566 409/555 400/762 
f 391/767 419/766 545/729 382/727 
f 541/685 542/687 554/692 551/691 
f 420/566 539/683 549/746 548/689 
f 539/683 540/682 550/748 549/746 
f 540/682 541/685 551/691 550/748 
f 390/755 533/756 552/752 547/751 
f 533/756 534/757 553/754 552/752 
f 534/757 535/688 554/692 553/754 
f 415/557 409/555 548/689 
f 409/555 420/566 548/689 
f 400/762 409/555 410/554 399/763 
f 392/768 391/767 382/727 381/697 
f 393/528 392/768 381/697 380/529 
f 399/763 410/554 411/562 398/764 
f 398/764 411/562 412/546 397/545 
f 398/734 397/735 555/657 556/646 
f 399/736 398/734 556/646 557/669 
f 400/737 399/736 557/669 558/671 
f 546/738 400/737 558/671 568/673 
f 402/739 401/740 559/704 560/564 
f 403/700 402/739 560/564 561/556 
f 404/853 403/700 561/556 562/696 
f 405/702 404/853 562/696 563/698 
f 406/701 405/702 563/698 564/699 
f 407/703 406/701 564/699 565/731 
f 414/544 413/543 566/558 567/560 
f 397/735 414/741 567/705 555/657 
f 401/740 546/738 568/673 559/704 
f 566/558 412/546 418/647 
f 566/558 413/543 412/546 
f 569/863 570/864 576/875 575/876 
f 570/864 571/865 577/877 576/875 
f 571/865 572/866 578/867 577/877 
f 572/866 573/878 579/879 578/867 
f 573/868 604/869 640/870 579/880 
f 604/869 611/881 642/882 640/870 
f 611/881 605/900 641/901 642/882 
f 605/900 598/871 639/874 641/901 
f 598/871 592/872 638/873 639/874 
f 592/872 586/883 637/884 638/873 
f 586/883 574/885 580/886 637/884 
f 574/885 569/863 575/876 580/886 
f 569/891 574/892 581/893 
f 569/891 581/893 582/894 
f 569/891 582/894 583/895 
f 569/891 583/895 584/896 
f 569/891 584/896 585/902 
f 569/891 585/902 570/903 
f 587/905 581/893 574/892 586/904 
f 588/906 582/894 581/893 587/905 
f 589/907 583/895 582/894 588/906 
f 590/908 584/896 583/895 589/907 
f 591/914 585/902 584/896 590/908 
f 571/915 570/903 585/902 591/914 
f 593/917 587/905 586/904 592/916 
f 594/918 588/906 587/905 593/917 
f 595/919 589/907 588/906 594/918 
f 596/920 590/908 589/907 595/919 
f 597/927 591/914 590/908 596/920 
f 572/928 571/915 591/914 597/927 
f 599/930 593/917 592/916 598/929 
f 600/931 594/918 593/917 599/930 
f 601/932 595/919 594/918 600/931 
f 602/933 596/920 595/919 601/932 
f 603/940 597/927 596/920 602/933 
f 573/941 572/928 597/927 603/940 
f 606/943 599/930 598/929 605/942 
f 607/944 600/931 599/930 606/943 
f 608/945 601/932 600/931 607/944 
f 609/946 602/933 601/932 608/945 
f 610/953 603/940 602/933 609/946 
f 604/954 573/941 603/940 610/953 
f 611/955 606/943 605/942 
f 611/955 607/944 606/943 
f 611/955 608/945 607/944 
f 611/955 609/946 608/945 
f 611/955 610/953 609/946 
f 611/955 604/954 610/953 
f 575/876 576/875 612/889 
f 575/876 612/889 613/890 
f 575/876 613/890 614/897 
f 575/876 614/897 615/898 
f 575/876 615/898 616/899 
f 575/876 616/899 580/886 
f 617/888 612/889 576/875 577/877 
f 618/934 613/935 612/925 617/926 
f 619/936 614/937 613/935 618/934 
f 620/938 615/939 614/937 619/936 
f 621/947 616/948 615/939 620/938 
f 637/884 580/886 616/899 621/922 
f 622/887 617/888 577/877 578/867 
f 623/950 618/934 617/926 622/949 
f 624/951 619/936 618/934 623/950 
f 625/952 620/938 619/936 624/951 
f 626/956 621/947 620/938 625/952 
f 638/873 637/884 621/922 626/923 
f 627/921 622/887 578/867 579/879 
f 628/958 623/950 622/949 627/957 
f 629/959 624/951 623/950 628/958 
f 630/960 625/952 624/951 629/959 
f 631/961 626/956 625/952 630/960 
f 639/874 638/873 626/923 631/924 
f 632/909 627/967 579/880 640/870 
f 633/963 628/958 627/957 632/962 
f 634/964 629/959 628/958 633/963 
f 635/965 630/960 629/959 634/964 
f 636/966 631/961 630/960 635/965 
f 641/901 639/874 631/924 636/913 
f 642/882 632/909 640/870 
f 642/882 633/910 632/909 
f 642/882 634/911 633/910 
f 642/882 635/912 634/911 
f 642/882 636/913 635/912 
f 642/882 641/901 636/913 
# 337 polygons - 28 triangles

